<svg width="119.92999999999999" height="122.88"
    xmlns="http://www.w3.org/2000/svg" data-name="Layer 1">
    <title>helpdesk</title>
    <g>
        <title>Layer 1</title>
        <path id="svg_1" fill-rule="evenodd" fill="#757575" d="m0,122.88c1.44,-18.54 -2.21,-17.79 13.32,-23.6a120.09,120.09 0 0 0 21.82,-11l13.27,34.63l-48.41,-0.03zm41.22,-50.13a47.21,47.21 0 0 1 -3.9,-7.75c-8.39,-4.72 -9.73,-25.71 -4.56,-24.12c0,-0.79 -0.14,-3 -0.14,-4.52c0,-34.07 54.74,-34.09 54.74,0c0,1.56 -0.16,3.73 -0.14,4.52c5.17,-1.62 3.78,19.37 -4.56,24.12c-2.13,5.9 -5.93,9.86 -5.62,12.45c-0.04,8.86 -9.77,12.08 -17.04,12.16c-0.66,0 -1.33,0 -2,-0.1a17.8,17.8 0 0 0 4.52,-1.9l0,0c3.11,-1.9 5.21,-4.71 5.21,-8.08s-2.09,-6.2 -5.2,-8.09l0,0a18.68,18.68 0 0 0 -9.4,-2.57a19.54,19.54 0 0 0 -7.51,1.35a12.78,12.78 0 0 0 -4,2.58l-0.37,0l-0.03,-0.05zm44.22,13.92a88.34,88.34 0 0 0 20.11,10c14.5,4.82 14.5,5.5 14.36,26.17l-48.22,0l13.75,-36.17zm-21.81,17.77l1.86,0a3,3 0 0 0 3,-3l0,-5a3,3 0 0 0 -3,-3l-11,0a3.05,3.05 0 0 0 -3,3l0,5a3.06,3.06 0 0 0 3,3l1.89,0l-3.68,18.44l14.41,0l-3.48,-18.44z" class="cls-1"/>
        <path id="svg_2" fill="#00a2e9" fill-rule="evenodd" d="m99.47,31.61l-0.37,0c-3.43,-14.53 -12.25,-24.61 -22.76,-28.78a44.05,44.05 0 0 0 -19.34,-2.68a46.75,46.75 0 0 0 -18.44,5.4a34.24,34.24 0 0 0 -17.37,26.06l-0.69,0c-3.3,0 -6.64,2.71 -6.64,6l0,21.67c0,3.3 3.34,6 6.64,6l1.95,0c2.13,8.65 10.76,16.57 19.55,16.57l1.73,0c1.51,2.22 4.44,3.79 9.32,3.79s10.08,-2.75 10.08,-6.13s-5.13,-6.12 -10.04,-6.12s-8,1.63 -9.41,3.93l-1.68,0c-7.54,0 -15,-8 -15.53,-15.22l0,-30.1a29.07,29.07 0 0 1 14.7,-21.8a41.46,41.46 0 0 1 16.27,-4.73a38.8,38.8 0 0 1 16.93,2.32c8.71,3.44 16.07,12 19.23,23.82l-0.13,0l0,33.67l6,0c3.31,0 6.64,-2.7 6.64,-6l0,-21.66c0,-3.31 -3.34,-6 -6.64,-6l0,-0.01z" class="cls-2"/>
    </g>
</svg>